<?xml version="1.0" encoding="UTF-8" standalone="no"?>
<svg
   xmlns:dc="http://purl.org/dc/elements/1.1/"
   xmlns:cc="http://creativecommons.org/ns#"
   xmlns:rdf="http://www.w3.org/1999/02/22-rdf-syntax-ns#"
   xmlns:svg="http://www.w3.org/2000/svg"
   xmlns="http://www.w3.org/2000/svg"
   xmlns:sodipodi="http://sodipodi.sourceforge.net/DTD/sodipodi-0.dtd"
   xmlns:inkscape="http://www.inkscape.org/namespaces/inkscape"
   viewBox="0 0 216.4144 232.00976"
   version="1.1"
   id="svg6"
   sodipodi:docname="logo.svg"
   inkscape:version="0.92.2 2405546, 2018-03-11">
  <metadata
     id="metadata12">
    <rdf:RDF>
      <cc:Work
         rdf:about="">
        <dc:format>image/svg+xml</dc:format>
        <dc:type
           rdf:resource="http://purl.org/dc/dcmitype/StillImage" />
      </cc:Work>
    </rdf:RDF>
  </metadata>
  <defs
     id="defs10" />
  <sodipodi:namedview
     pagecolor="#ffffff"
     bordercolor="#666666"
     borderopacity="1"
     objecttolerance="10"
     gridtolerance="10"
     guidetolerance="10"
     inkscape:pageopacity="0"
     inkscape:pageshadow="2"
     inkscape:window-width="1920"
     inkscape:window-height="1023"
     id="namedview8"
     showgrid="false"
     inkscape:zoom="1.0171986"
     inkscape:cx="108.2072"
     inkscape:cy="116.00488"
     inkscape:window-x="0"
     inkscape:window-y="33"
     inkscape:window-maximized="1"
     inkscape:current-layer="svg6" />
  <path
     d="m 211.80734,92.922263 c -3.18125,-16.36625 -28.4925,-34.2775 -57.5625,-37.74875 -15.15875,-1.80875 -30.08375,-3.47125 -45.99875,-2.74125 -26.0275,1.1925 -46.565,6.2125 -46.565,6.2125 0,-2.53375 0.15625,-4.94625 0.46875,-7.2025 3.38375,-25.68625 25.47,-27.225 46.39125,-27.9425 21.11625,-0.7225 39.91875,5.20625 39.91875,5.20625 l 0.8675,-19.0900002 c 0,0 -14.77,-7.93125 -41.08125,-9.38999999 -14.50875,-0.7975 -32.52375,0.365 -53.50625,5.91874999 C 9.23234,18.189763 1.40609,66.698513 0.20859,115.91851 c -0.365,14.61375 -0.14,28.39375 -0.14,39.91875 0,50.33 32.97625,65.0825 32.97625,65.0825 16.6275,7.63625 45.15875,10.8475 74.82,11.09 h 0.72875 c 29.66125,-0.2425 58.21125,-3.45375 74.8375,-11.09 0,0 32.975,-14.7525 32.975,-65.0825 0,0 0.41375,-37.13375 -4.59875,-62.914997"
     id="path2"
     inkscape:connector-curvature="0"
     style="fill:#3088d4" />
  <path
     d="M 180.45912,148.43852 V 87.497269 h -24.14375 v 59.150001 c 0,12.46875 -5.24625,18.7975 -15.74,18.7975 -11.6025,0 -17.4175,-7.5075 -17.4175,-22.3525 V 110.71602 H 99.156617 v 32.37625 c 0,14.845 -5.81625,22.3525 -17.41875,22.3525 -10.49375,0 -15.74,-6.32875 -15.74,-18.7975 V 87.497269 h -24.14375 v 60.941251 c 0,12.455 3.17125,22.3525 9.54125,29.675 6.56875,7.3225 15.17125,11.07625 25.85,11.07625 12.355,0 21.71125,-4.74875 27.897503,-14.2475 l 6.01375,-10.08125 6.015,10.08125 c 6.185,9.49875 15.54125,14.2475 27.8975,14.2475 10.6775,0 19.28,-3.75375 25.85,-11.07625 6.36875,-7.3225 9.54,-17.22 9.54,-29.675"
     id="path4"
     inkscape:connector-curvature="0"
     style="fill:#ffffff" />
</svg>
